<?xml version="1.0" ?><svg id="Layer_1" style="enable-background:new 0 0 100 100;" version="1.1" viewBox="0 0 100 100" xml:space="preserve" xmlns="http://www.w3.org/2000/svg" xmlns:xlink="http://www.w3.org/1999/xlink"><path d="M85,4H15C8.9,4,4,8.9,4,15v70c0,6.1,4.9,11,11,11h70c6.1,0,11-4.9,11-11V15C96,8.9,91.1,4,85,4z M79.2,69  c-0.8,1.6-3.1,1.8-3.4,1.8L68,70.9c-0.1,0-0.3,0-0.5,0c-0.8,0-2.3-0.2-4-1.4c-1.3-0.9-2.4-2.2-3.6-3.5c-1.1-1.3-2.7-3.2-3.5-3  c-1,0.3-1.5,2.9-1.4,4.5c0,0.2,0,1.5-0.8,2.2c-0.8,0.8-2,1-2.2,1c0,0-0.1,0-0.1,0h-3.5c-0.7,0-8.5,0.2-15.4-7  c-7.5-7.8-14-22.9-14.3-23.6c-0.1-0.3-0.6-1.7,0.2-2.5c0.7-0.8,2.1-0.9,2.5-0.9l8.5-0.1c0.1,0,0.1,0,0.2,0c0.1,0,1.1,0.2,1.8,0.7  c0.7,0.5,1,1.3,1.1,1.4c0,0,1.4,3.4,3.1,6.5c3.8,6.6,4.9,6.5,5,6.4c0.6-0.5,0.9-4.1,0.7-7.7c0-1-0.2-2.8-0.7-3.5  c-0.5-0.7-1.6-0.9-1.9-0.9c-0.5-0.1-0.9-0.4-1-1c-0.2-1,1.1-2.2,2-2.6c1.7-0.8,4.6-0.9,7.8-0.9c2.5,0,3.3,0.2,4.4,0.4  c3,0.7,2.9,3.2,2.8,7c0,1.1-0.1,2.4-0.1,3.9c0,0.3,0,0.7,0,1.1c0,1.4-0.1,3.4,0.6,4c0.3-0.1,1.7-0.8,4.9-6.3  c1.8-3.1,3.2-6.7,3.2-6.8c0.1-0.2,0.5-1,1.2-1.5c0.7-0.4,1.4-0.4,1.7-0.3l8.8-0.1c0.7-0.1,3.5-0.3,4.1,1.5c0.4,1.1,0.2,3.3-4.8,10  c-0.8,1-1.4,1.9-2,2.7c-1.7,2.2-2.8,3.6-2.8,4.4c0,0.7,1.1,1.7,2.8,3.3l0.1,0.1c2.1,1.9,4.8,4.7,6,7C79.6,67,79.7,68.1,79.2,69z"/></svg>